<svg fill="none" version="1.1" viewBox="0 0 368.56 346.15" xmlns="http://www.w3.org/2000/svg">
  <g fill="#fff">
    <path d="m102.09 44.338c-10.894-10.158-6.6098-27.537-3.6721-34.635 1.8361-4.5283 4.1621-2.9373 6.7321 5.1401 1.591 4.8954 7.834 21.05 6.243 24.232-1.592 3.182-5.386 8.9341-9.303 5.2625z" clip-rule="evenodd" fill-rule="evenodd"/>
    <path d="m145.05 116.91c-1.102 1.713-0.245 3.426 2.08 4.283 2.326 0.857 8.691-0.245 10.405 5.14 1.713 5.508 0 19.582-1.469 24.844-1.469 5.141 0.734 6.732 2.081 7.833 5.753 4.284 17.871 9.546 34.64-0.245 11.384-6.609 41.862-39.285 44.433-45.649 2.081-5.14 0.367-4.161-3.428-2.938-11.506 4.039-32.314 10.648-53.49 31.821-3.795 3.793-6.61 4.405-10.037 3.793-7.589-1.223-10.405-23.62-7.1-32.676 1.224-3.305 0.49-4.529-0.856-5.14-0.98-0.49-1.959-0.98-5.509 0-7.221 1.958-11.75 8.934-11.75 8.934z" clip-rule="evenodd" fill-rule="evenodd"/>
    <path d="m183.12 33.323c-1.714-3.3044-11.873-6.364-16.769-7.7102-3.673-0.9791-1.592 3.9163-0.368 7.0983 2.204 5.8745 11.629 13.952 17.382 12.361 3.182-0.9791 1.836-7.8327-0.245-11.749z"/>
    <path d="m176.14 59.391c-4.529-1.591-18.238-2.6925-22.767-3.3044-4.161-0.6119-1.224 3.4268-0.122 7.2207 1.224 3.6716 14.811 11.627 19.952 7.7103 2.937-2.203 6.61-10.28 2.937-11.627z"/>
    <path d="m233.3 59.881c2.692-0.8567 10.894-1.2238 13.586-1.591 2.448-0.2447 1.959 3.182 0.245 4.8954-3.672 3.3044-8.446 7.3431-11.751 4.5283-1.836-1.591-4.284-7.0984-2.08-7.8327z"/>
    <path d="m209.43 29.774c1.469 0.2448 3.427-0.8566 3.794-3.182 1.224-7.2207-3.794-18.235-5.753-22.152-1.713-3.3044-7.466-5.7521-7.589-3.6715-0.489 10.403-3.672 16.155-0.489 23.375 1.468 3.3044 10.037 5.6297 10.037 5.6297z"/>
    <path d="m103.8 132.09c2.815-0.857 6.732-2.937 5.141-3.794-12.975-6.119-19.095-26.068-16.158-52.38 0.3672-2.8149-2.8153 0.4895-3.9169 3.5491-0.7345 2.0806-21.91 63.273 14.934 52.625z" clip-rule="evenodd" fill-rule="evenodd"/>
    <path d="m249.82 105.41c4.162 4.773 14.811 21.172 15.178 27.414 0.49 7.955-8.078 11.504-12.362 13.585-4.285 2.08-53.124 16.399-61.814 24.844-5.998 5.874 0.244 3.671 3.06 3.304 13.097-2.447 51.899-0.489 73.687-7.832 21.421-7.221 19.095-25.824 17.014-32.065-2.326-6.854-14.444-27.414-32.927-33.534-6.487-2.2025-4.773 0.979-1.836 4.284z" clip-rule="evenodd" fill-rule="evenodd"/>
    <path d="m196.83 89.865c-2.203-2.0806-4.896-4.8954-3.55-5.385 2.816-1.2238 12.608-4.8953 15.423-7.7102 6.488-6.6088 8.079-28.516-9.792-33.044-2.203-0.612-1.347-3.182 3.55-3.4268 24.848-1.4686 26.439 24.599 23.134 35.002-2.448 7.7102-8.079 9.4236-6.12 13.83 1.836 4.1611 11.138 4.773 13.709 6.8535 1.102 0.8567-1.224 1.8358-4.407 2.3253-3.182 0.1224-22.032 0.9796-31.947-8.4445z"/>
    <path d="m140.15 171.62c-1.469-0.734-3.672-5.874-5.998-9.178-1.714-2.326-5.63-7.711-7.344-10.525-3.305-5.263-21.298-65.721-22.645-73.309-1.224-6.6088-2.081-13.952-0.122-17.256 2.325-3.794 14.933-10.036 15.912-8.1998 2.938 5.3849 10.405 71.717 23.135 117.12 0.612 1.958-1.959 1.836-2.938 1.346z" clip-rule="evenodd" fill-rule="evenodd"/>
    <path d="m224.49 39.198c-0.245-1.4686 1.958-4.8954 4.284-5.8744 3.305-1.3463 5.998-1.591 7.712-1.4687 3.182 0.1224 5.508 0.7344 4.528 2.3254-0.979 1.8357-5.263 9.546-10.281 11.015-3.917 1.1015-5.998-4.8954-6.243-5.9969z" clip-rule="evenodd" fill-rule="evenodd"/>
    <path d="m21.665 195.36c2.0809 2.693 4.4066 5.63 6.9771 8.934 2.5704 3.182 5.2633 6.609 8.0786 10.036s5.5082 6.731 8.0787 9.668c2.5704 3.06 4.7737 5.63 6.7322 7.833 1.9584 2.203 3.3049 3.794 4.1617 4.528 0.2448-0.857 0.7344-2.325 1.224-4.283 0.4896-1.959 1.1017-4.284 1.7137-6.976 0.612-2.693 1.3464-5.508 2.0809-8.69 0.8568-3.182 1.5912-6.241 2.2032-9.423s1.3465-6.242 1.8361-9.179c0.612-2.937 0.9792-5.63 1.3464-7.955 0.4896 0.122 0.9793 0.245 1.7137 0.245 0.612 0 1.224 0.122 1.836 0.122s1.2241 0 1.5913-0.122c0.3672 0 0.8568-0.123 1.4688-0.245-0.612 1.836-1.3464 4.283-2.3256 7.588-0.9793 3.182-1.9585 6.731-2.9377 10.647-1.1017 3.917-2.0809 7.955-3.1825 12.116-1.1017 4.161-2.0809 8.2-3.0601 11.872-0.8569 3.671-1.7137 7.098-2.3257 9.913-0.7344 2.937-1.1016 4.895-1.3464 6.119h-1.4689c-0.4896-0.734-1.7136-2.203-3.6721-4.528s-4.1617-5.14-6.8546-8.445c-2.5705-3.182-5.3858-6.609-8.4459-10.28-2.9377-3.672-5.8754-7.098-8.5683-10.28-2.6928-3.182-5.0185-5.997-7.0994-8.323-2.0808-2.325-3.4273-3.916-4.0393-4.65-0.4896 1.591-1.1016 3.671-1.7137 6.364-0.7344 2.57-1.3464 5.385-2.0808 8.322s-1.4689 5.997-2.2033 9.056c-0.7344 3.182-1.4688 6.12-2.0808 9.057-0.61202 2.815-1.224 5.385-1.5912 7.71-0.48962 2.326-0.73442 4.039-0.85683 5.14-0.48961 0-1.1016-0.122-1.5912-0.122h-1.836-1.7137c-0.61202 0-1.224 0-1.7137 0.122 0.73442-1.835 1.5913-4.283 2.5705-7.587 0.97923-3.305 2.0809-6.854 3.1825-10.77 1.1016-3.917 2.2033-7.955 3.3049-12.116 1.1017-4.162 2.0809-8.078 3.0601-11.749 0.9793-3.672 1.7137-6.976 2.4481-9.791s1.1016-4.896 1.4689-6.119h1.224c0.8568 1.468 2.3257 3.549 4.4065 6.241z"/>
    <path d="m80.786 222.53c1.3464-2.937 3.1825-5.507 5.6305-7.832 2.4481-2.326 5.3858-4.162 8.9355-5.63 3.5497-1.469 7.4663-2.203 11.75-2.203 4.04 0 7.345 0.489 10.16 1.346 2.815 0.979 5.019 2.203 6.732 3.672 1.714 1.468 2.938 3.304 3.672 5.262 0.735 1.958 1.102 4.039 1.102 6.119 0 3.06-0.734 6.12-2.081 9.179-1.346 3.06-3.305 5.63-5.753 8.078-2.448 2.325-5.508 4.283-9.058 5.629-3.549 1.347-7.466 2.081-11.873 2.081-4.1617 0-7.589-0.49-10.404-1.469-2.6929-0.979-4.8961-2.325-6.4874-4.038-1.5912-1.714-2.6929-3.427-3.3049-5.508-0.612-2.08-0.9792-4.038-0.9792-5.752 0-3.059 0.7344-5.997 1.9585-8.934zm9.0578 19.582c1.9585 2.325 5.2634 3.427 9.9147 3.427 3.7948 0 7.0998-0.857 9.6698-2.571 2.693-1.713 4.774-3.793 6.488-6.241 1.713-2.448 2.937-5.018 3.672-7.833 0.734-2.692 1.101-5.14 1.101-7.221 0-1.713-0.245-3.304-0.857-4.895-0.612-1.469-1.468-2.815-2.57-3.916-1.102-1.102-2.57-1.958-4.284-2.57s-3.672-0.979-5.753-0.979c-3.672 0-6.732 0.856-9.4252 2.447-2.5705 1.591-4.7738 3.672-6.365 5.997-1.5913 2.325-2.8153 5.018-3.5497 7.71-0.7344 2.815-1.1017 5.385-1.1017 7.711 0 3.794 0.9793 6.731 3.0601 8.934z"/>
    <path d="m155.94 202.95c-0.49 1.958-0.979 3.916-1.591 5.875 1.591 0 3.305 0 5.141-0.123 1.836-0.122 3.672-0.122 5.385-0.245-0.367 1.102-0.612 2.326-0.612 3.305-1.713 0-3.549-0.123-5.508-0.245-1.958-0.122-3.672-0.122-5.263-0.122l-3.917 15.787c-0.245 0.857-0.49 1.836-0.735 2.937-0.244 1.102-0.489 2.203-0.734 3.305-0.245 1.101-0.49 2.08-0.612 3.06-0.122 0.979-0.245 1.835-0.245 2.447 0 1.102 0.245 2.081 0.735 2.815 0.489 0.734 1.101 1.469 1.713 1.836 0.735 0.489 1.469 0.857 2.326 1.101 0.857 0.245 1.591 0.367 2.326 0.367 1.101 0 2.325-0.122 3.427-0.489s2.203-0.734 3.182-1.224l-0.244 2.203c-1.347 0.857-2.938 1.469-4.897 1.836-1.958 0.367-3.672 0.489-5.385 0.489-1.224 0-2.571-0.122-3.917-0.489-1.347-0.367-2.448-0.735-3.428-1.346-0.979-0.612-1.836-1.469-2.448-2.448s-0.979-2.081-0.979-3.427c0-1.101 0.123-2.325 0.49-3.549 0.245-1.224 0.612-2.57 0.979-3.916 0.734-2.815 1.346-5.141 1.836-6.976 0.49-1.836 0.857-3.427 1.224-4.896 0.367-1.468 0.735-2.815 1.102-4.283 0.367-1.469 0.734-3.182 1.346-5.385h-3.182c-1.224 0-2.326 0.122-3.428 0.122 0.245-0.489 0.368-0.856 0.49-1.346s0.122-1.101 0.122-1.958c1.102 0 2.204 0.122 3.305 0.245 1.224 0.122 2.204 0.122 3.06 0.122l1.836-8.934 8.814-2.693c-0.612 2.326-1.224 4.284-1.714 6.242z"/>
    <path d="m186.42 207.97c2.693-0.734 5.509-1.101 8.569-1.101 4.284 0 7.589 0.857 10.159 2.57 2.571 1.713 3.795 4.039 3.795 6.731 0 1.224-0.123 2.325-0.49 3.672-0.245 1.224-0.612 2.203-0.734 2.937l-2.938 10.28c-0.49 1.836-0.857 3.305-1.102 4.406-0.244 1.224-0.244 2.203-0.244 3.06 0 0.979 0.367 1.836 0.979 2.692 0.612 0.735 1.591 1.102 2.938 1.102 0.612 0 1.101-0.123 1.591-0.245 0.489-0.122 0.857-0.245 1.224-0.49l0.489 1.836c-1.101 0.612-2.325 1.102-3.549 1.469s-2.571 0.489-3.917 0.489c-2.081 0-3.672-0.489-4.774-1.346-1.102-0.979-1.714-2.325-1.836-4.039-1.958 1.836-4.284 3.305-6.977 4.529-2.57 1.223-5.508 1.835-8.813 1.835-1.469 0-2.938-0.122-4.407-0.489-1.468-0.367-2.815-0.857-4.039-1.591s-2.081-1.714-2.938-2.815c-0.734-1.101-1.101-2.448-1.101-3.916 0-2.693 0.857-4.896 2.57-6.609 1.714-1.713 3.672-3.06 6.12-4.039s4.774-1.713 7.345-2.203c2.448-0.489 4.529-0.856 6.12-1.101 1.346-0.245 2.815-0.49 4.406-0.612 1.592-0.245 2.816-0.49 3.795-0.857 1.469-0.489 2.326-1.346 2.693-2.57s0.612-2.448 0.612-3.671c0-2.571-0.979-4.406-2.938-5.63-1.958-1.224-4.406-1.836-7.222-1.836-2.815 0-5.263 0.49-7.222 1.591-1.958 0.979-3.916 2.325-5.753 4.039h-1.224l1.469-4.528c2.081-1.714 4.774-2.815 7.344-3.55zm-8.445 35.002c1.591 1.102 3.427 1.591 5.508 1.591 2.815 0 5.386-0.611 7.589-1.958 2.203-1.346 4.162-2.815 5.63-4.65 0.368-1.958 0.857-3.917 1.347-5.875 0.489-1.958 1.101-3.916 1.714-5.874-1.592 0.244-3.061 0.489-4.529 0.734-1.469 0.245-2.938 0.49-4.529 0.734-1.714 0.367-3.428 0.735-5.141 1.224-1.836 0.49-3.428 1.102-4.896 1.958-1.469 0.857-2.693 1.836-3.55 2.938-0.979 1.223-1.469 2.57-1.469 4.283 0 2.203 0.734 3.794 2.326 4.895z"/>
    <path d="m238.32 211.88c-0.612 1.836-1.224 4.038-1.958 6.486-0.735 2.448-1.469 5.018-2.081 7.71-0.735 2.693-1.347 5.385-2.081 8.078-0.612 2.692-1.224 5.14-1.714 7.465-0.489 2.326-0.856 4.284-1.101 5.752-0.735-0.122-1.469-0.122-2.326-0.122h-2.326-2.203c-0.612 0-1.224 0-1.714 0.122 0.735-1.835 1.469-4.038 2.326-6.608s1.591-5.263 2.326-8.078c0.734-2.815 1.469-5.63 2.081-8.322 0.734-2.692 1.224-5.263 1.713-7.588 0.49-2.325 0.98-4.283 1.224-5.874 0.368-1.591 0.49-2.693 0.612-3.182 1.347 0.244 2.816 0.367 4.285 0.367 1.713 0 3.06-0.123 4.161-0.367-0.122 0.856-0.612 2.203-1.224 4.161zm-2.815-20.439c0.979-0.734 2.081-1.223 3.427-1.223 1.347 0 2.448 0.367 3.428 1.223 0.979 0.735 1.468 1.714 1.468 2.815 0 1.102-0.489 2.081-1.468 2.815-0.98 0.734-2.081 1.224-3.428 1.224-1.346 0-2.448-0.367-3.427-1.224-0.979-0.734-1.469-1.713-1.469-2.815 0.122-1.101 0.612-2.08 1.469-2.815z"/>
    <path d="m275.53 213.84c-0.735-0.123-1.469-0.245-2.203-0.245-2.326 0-4.652 0.857-6.977 2.448-2.204 1.713-3.917 4.161-5.141 7.588-0.123 0.244-0.368 0.856-0.612 1.958-0.245 1.101-0.612 2.325-1.102 3.794-0.367 1.468-0.857 3.059-1.224 4.895-0.49 1.714-0.857 3.549-1.224 5.14-0.367 1.714-0.735 3.182-1.102 4.651-0.245 1.469-0.489 2.57-0.612 3.182-0.489-0.122-1.101-0.122-1.713-0.122h-2.081-2.204c-0.734 0-1.346 0-1.958 0.122 0.367-0.979 0.857-2.448 1.469-4.406s1.224-4.283 1.958-6.731c0.735-2.448 1.347-5.14 2.081-7.833 0.735-2.692 1.347-5.385 1.959-7.955s1.101-5.018 1.591-7.22c0.489-2.203 0.857-4.039 0.979-5.508 0.49 0.123 1.224 0.245 1.836 0.245 0.735 0 1.347 0.122 2.081 0.122 1.469 0 2.693-0.122 3.795-0.367-0.123 0.367-0.368 0.857-0.612 1.469-0.245 0.612-0.49 1.346-0.735 2.203-0.245 0.856-0.489 1.713-0.734 2.692s-0.368 1.836-0.612 2.693h0.489c1.102-1.102 2.204-2.326 3.305-3.427 1.102-1.224 2.326-2.203 3.55-3.182s2.693-1.713 4.162-2.325c1.591-0.612 3.305-0.857 5.263-0.857-0.367 1.469-0.612 2.692-0.734 3.671-0.123 1.102-0.245 2.081-0.245 3.182l-0.857 0.368c-0.612 0-1.224-0.123-1.836-0.245z"/>
    <path d="m312.37 247.25c-2.815 0.49-5.63 0.857-8.568 0.857-2.203 0-4.406-0.245-6.732-0.735-2.326-0.489-4.529-1.346-6.487-2.692-1.959-1.346-3.672-3.06-4.897-5.263-1.224-2.203-1.958-5.017-1.958-8.444 0-3.305 0.612-6.487 1.836-9.301 1.224-2.938 3.06-5.508 5.263-7.588 2.326-2.203 5.019-3.917 8.201-5.141 3.305-1.346 6.855-1.958 10.65-1.958 2.448 0 4.773 0.245 6.854 0.735 2.203 0.489 4.04 1.223 5.753 2.325 1.714 1.101 3.06 2.57 4.04 4.283 0.979 1.714 1.468 3.917 1.468 6.487 0 1.591-0.122 2.937-0.367 4.039-0.245 1.101-0.489 2.08-0.734 2.814-1.469 0-2.693-0.122-3.795-0.122-1.101 0-2.325-0.122-3.427-0.122s-2.326 0-3.427-0.123h-4.162-10.527-4.774-4.284c-0.122 0.612-0.245 1.224-0.367 2.081-0.122 0.734-0.122 1.713-0.122 2.815 0 2.692 0.489 5.017 1.468 6.608 0.98 1.714 2.204 3.06 3.673 3.917 1.468 0.979 3.06 1.591 4.773 1.958 1.714 0.367 3.305 0.489 4.652 0.489 1.958 0 3.672-0.122 5.263-0.489s2.938-0.734 4.284-1.102c1.224-0.489 2.326-0.856 3.183-1.468 0.857-0.49 1.713-0.979 2.325-1.224h0.245l-1.346 3.794c-2.448 1.224-5.141 2.08-7.957 2.57zm-7.099-37.205c-1.591 0.367-3.305 1.224-4.896 2.203-1.591 1.101-3.06 2.57-4.407 4.406-1.346 1.836-2.448 4.283-3.182 7.098 2.081 0.122 4.406 0.245 6.854 0.245 2.449 0 4.774 0.122 6.855 0.122h3.183 5.385c1.836 0 3.55-0.122 4.897-0.245 0.122-0.489 0.244-1.101 0.367-1.835 0.122-0.735 0.245-1.591 0.245-2.693 0-1.836-0.368-3.427-0.98-4.65-0.612-1.224-1.469-2.326-2.448-3.06-1.101-0.734-2.203-1.346-3.549-1.713-1.225-0.368-2.571-0.49-3.917-0.49-1.347 0-2.693 0.245-4.407 0.612z"/>
    <path d="m362.07 210.78c-1.468-0.857-3.304-1.346-5.263-1.346-1.469 0-2.815 0.244-4.039 0.734-1.224 0.489-2.203 1.101-3.06 1.836-0.857 0.734-1.469 1.591-1.959 2.57-0.489 0.979-0.612 1.958-0.612 2.815 0 0.979 0.245 1.835 0.735 2.692 0.489 0.734 1.101 1.469 1.958 1.958 0.857 0.612 1.714 1.102 2.815 1.469 1.102 0.489 2.204 0.856 3.305 1.224 1.102 0.367 2.204 0.856 3.183 1.346 1.101 0.489 2.081 1.101 2.937 1.713 0.857 0.612 1.592 1.469 2.081 2.448 0.49 0.979 0.857 2.081 0.857 3.427 0 1.958-0.489 3.794-1.591 5.629-1.102 1.714-2.571 3.305-4.407 4.651s-4.039 2.325-6.609 3.06c-2.571 0.734-5.264 1.101-8.201 1.101-2.081 0-4.04-0.122-5.753-0.489-1.714-0.368-3.428-0.979-5.264-1.714 0.735-0.979 1.347-2.08 1.959-3.182 0.489-1.101 0.979-1.958 1.346-2.57h0.734c0.735 1.714 2.081 2.937 3.917 3.794s3.917 1.224 6.121 1.224c1.958 0 3.672-0.245 5.018-0.857 1.347-0.612 2.571-1.224 3.427-2.08 0.857-0.857 1.592-1.836 1.959-2.815 0.49-0.979 0.612-1.958 0.612-2.937 0-1.836-0.734-3.182-2.081-4.039-1.346-0.857-3.427-1.836-6.12-2.815-1.102-0.367-2.203-0.857-3.305-1.346-1.102-0.49-2.081-1.102-2.938-1.836s-1.591-1.591-2.081-2.692c-0.489-0.98-0.856-2.326-0.856-3.794 0-1.469 0.367-2.938 0.979-4.529 0.734-1.591 1.714-3.059 3.182-4.405 1.469-1.347 3.305-2.448 5.753-3.305s5.264-1.346 8.569-1.346c1.836 0 3.427 0.122 4.773 0.367 1.347 0.245 2.816 0.734 4.407 1.346-0.979 1.958-1.714 3.305-1.959 4.039-0.244 0.734-0.489 1.469-0.612 1.958h-0.856c-0.49-1.101-1.469-2.325-3.061-3.304z"/>
    <path d="m69.893 301.84c-0.612 0.612-1.4689 1.224-2.3257 1.713-0.8568 0.49-1.9584 0.979-3.0601 1.224-1.224 0.245-2.5705 0.49-4.0393 0.49-1.8361 0-3.5497-0.245-5.0186-0.735-1.4688-0.489-2.5704-1.224-3.5497-2.203-0.9792-0.979-1.5912-2.08-2.0808-3.304-0.4897-1.224-0.7345-2.57-0.7345-3.916 0-1.591 0.3673-3.427 0.9793-5.263s1.7136-3.549 3.0601-5.14c1.3464-1.591 3.0601-2.815 5.1409-3.916 2.0809-0.979 4.529-1.469 7.2219-1.469 1.7136 0 3.06 0.245 4.1617 0.612 1.1016 0.367 2.0808 0.857 2.8153 1.346 0.7344 0.49 1.3464 1.102 1.7136 1.714 0.3672 0.611 0.612 1.101 0.8568 1.591h0.2449c0.7344-3.427 1.5912-6.732 2.3256-10.036 0.8569-3.304 1.4689-6.364 2.0809-9.301 0.612 0.122 1.4688 0.244 2.5705 0.244 0.9792 0 1.836-0.122 2.448-0.244-0.9792 3.182-1.7136 5.874-2.448 8.322-0.7345 2.448-1.2241 4.65-1.8361 6.853-0.4896 2.203-1.1016 4.406-1.5912 6.609-0.4897 2.203-1.1017 4.773-1.8361 7.588-0.3672 1.346-0.7344 2.815-1.1016 4.651-0.3672 1.713-0.7345 3.549-1.1017 5.262h-0.8568-1.224-1.3465-0.9792l1.3464-4.528-1.836 1.836zm-13.954-0.367c1.3464 1.346 3.1825 2.08 5.6305 2.08 2.4481 0 4.4066-0.612 5.8754-1.713 1.5913-1.102 2.8153-2.448 3.7945-4.039 0.9793-1.591 1.5913-3.304 1.9585-4.895 0.3672-1.714 0.612-3.182 0.612-4.284 0-0.489-0.1224-1.224-0.2448-2.08-0.1224-0.857-0.4896-1.591-1.1016-2.448-0.4896-0.734-1.3465-1.469-2.3257-1.958-0.9792-0.49-2.3257-0.857-4.1617-0.857-2.4481 0-4.4066 0.612-5.9978 1.591-1.5913 1.102-2.8153 2.448-3.7945 3.916-0.9793 1.591-1.5913 3.182-1.8361 4.773-0.3672 1.591-0.4896 2.938-0.4896 3.917 0.1224 2.692 0.7344 4.65 2.0809 5.997z"/>
    <path d="m103.68 304.53c-1.714 0.368-3.55 0.49-5.2635 0.49-1.3465 0-2.6929-0.122-4.1618-0.49-1.4688-0.244-2.8152-0.856-4.0393-1.713-1.224-0.857-2.2032-1.958-3.0601-3.304-0.8568-1.347-1.224-3.182-1.224-5.263 0-2.08 0.3672-4.039 1.224-5.874 0.7345-1.836 1.8361-3.427 3.3049-4.773 1.4689-1.347 3.1825-2.448 5.141-3.182 1.9585-0.735 4.1617-1.224 6.6098-1.224 1.469 0 2.938 0.122 4.284 0.489 1.347 0.245 2.571 0.735 3.55 1.469 1.101 0.734 1.836 1.591 2.448 2.692 0.612 1.102 0.857 2.448 0.857 4.039 0 0.979-0.123 1.836-0.245 2.448-0.122 0.734-0.367 1.224-0.49 1.713-0.857 0-1.713 0-2.448-0.122-0.734 0-1.469 0-2.081-0.123h-2.203-2.57-6.4878-3.0601-2.6929c-0.1224 0.368-0.1224 0.735-0.2448 1.224-0.1224 0.49-0.1224 1.102-0.1224 1.836 0 1.713 0.3672 3.06 0.9793 4.161 0.612 1.102 1.3464 1.836 2.3256 2.448 0.8569 0.612 1.8361 0.979 2.9377 1.224 1.1017 0.244 2.0809 0.367 2.9374 0.367 1.224 0 2.326-0.123 3.305-0.367 0.979-0.245 1.836-0.49 2.693-0.735 0.735-0.244 1.469-0.612 1.959-0.856 0.612-0.368 0.979-0.612 1.468-0.857h0.245l-0.857 2.325c-1.591 1.102-3.305 1.714-5.018 1.958zm-4.4067-23.253c-0.9792 0.245-2.0809 0.735-3.0601 1.469s-1.9585 1.591-2.6929 2.815c-0.8568 1.224-1.4688 2.692-1.9584 4.528 1.3464 0.122 2.6928 0.122 4.2841 0.122h4.284 1.959 3.304c1.225 0 2.204-0.122 3.061-0.244 0.122-0.368 0.122-0.735 0.244-1.102 0.123-0.489 0.123-1.101 0.123-1.713 0-1.102-0.245-2.081-0.612-2.938-0.367-0.856-0.857-1.468-1.591-1.958-0.612-0.489-1.347-0.856-2.204-1.101s-1.591-0.367-2.448-0.367-1.713 0.244-2.6927 0.489z"/>
    <path d="m147.38 291.56c-0.367 1.468-0.734 2.815-0.979 4.161-0.367 1.346-0.612 2.692-0.98 4.161-0.367 1.469-0.612 2.937-0.979 4.651h-1.224-1.469-1.591-1.346c0.857-2.448 1.591-5.263 2.57-8.445 0.857-3.182 1.714-6.364 2.571-9.668 0.856-3.305 1.591-6.487 2.325-9.546 0.735-3.06 1.347-5.752 1.714-8.078 2.203 0 4.162 0.123 6.12 0.123h5.141 4.774c1.591 0 2.815 0 3.794-0.123-0.244 0.49-0.367 0.979-0.489 1.346-0.123 0.368-0.123 0.857-0.123 1.469-0.856-0.122-1.958-0.245-3.182-0.367s-2.571-0.122-3.917-0.245c-1.347 0-2.571-0.122-3.917-0.122h-3.305c-0.857 2.815-1.591 5.385-2.203 7.588s-1.102 4.283-1.591 6.119h7.466c1.224 0 2.571 0 4.04-0.122 1.468-0.123 2.57-0.123 3.304-0.245-0.244 0.489-0.367 0.979-0.489 1.346-0.123 0.367-0.123 0.857-0.123 1.346-1.468-0.122-2.937-0.245-4.406-0.245h-4.407-5.753c-0.612 1.836-0.979 3.427-1.346 4.896z"/>
    <path d="m185.07 283.6c-0.368-0.123-0.857-0.123-1.347-0.123-1.469 0-2.938 0.49-4.284 1.591-1.469 0.979-2.448 2.57-3.182 4.651-0.123 0.122-0.245 0.489-0.368 1.224-0.244 0.612-0.367 1.468-0.612 2.447s-0.489 1.959-0.734 3.06-0.49 2.203-0.735 3.182c-0.244 1.101-0.489 2.081-0.612 2.937-0.244 0.857-0.367 1.591-0.367 2.081h-1.101-1.224-1.347-1.224c0.245-0.612 0.612-1.469 0.979-2.693 0.368-1.224 0.735-2.57 1.224-4.161 0.368-1.591 0.857-3.182 1.347-4.895 0.489-1.714 0.857-3.427 1.224-5.018s0.734-3.06 0.979-4.528c0.245-1.346 0.49-2.57 0.612-3.427 0.367 0.122 0.734 0.122 1.224 0.122h1.347c0.979 0 1.713-0.122 2.325-0.244-0.122 0.244-0.245 0.489-0.367 0.856-0.122 0.368-0.245 0.857-0.49 1.347-0.122 0.489-0.367 1.101-0.489 1.591-0.123 0.612-0.245 1.101-0.367 1.713h0.367c0.612-0.734 1.346-1.469 2.081-2.203 0.734-0.734 1.468-1.346 2.203-1.958 0.734-0.612 1.591-1.102 2.57-1.469 0.98-0.367 2.081-0.489 3.305-0.489-0.245 0.856-0.367 1.591-0.489 2.325-0.123 0.612-0.123 1.346-0.123 1.958l-0.612 0.245c-0.857 0.122-1.224 0-1.713-0.122z"/>
    <path d="m200.37 280.05c1.713-0.49 3.427-0.735 5.386-0.735 2.693 0 4.773 0.49 6.365 1.591 1.591 1.102 2.325 2.448 2.325 4.161 0 0.735-0.122 1.469-0.245 2.326-0.244 0.734-0.367 1.346-0.489 1.835l-1.836 6.364c-0.367 1.102-0.612 2.081-0.735 2.815-0.122 0.735-0.244 1.347-0.244 1.836 0 0.612 0.244 1.224 0.612 1.713 0.367 0.49 0.979 0.735 1.836 0.735 0.367 0 0.734 0 0.979-0.123 0.245-0.122 0.49-0.244 0.734-0.367l0.368 1.102c-0.735 0.367-1.469 0.612-2.204 0.856-0.734 0.245-1.591 0.245-2.448 0.245-1.346 0-2.325-0.245-2.938-0.857-0.734-0.611-1.101-1.346-1.224-2.447-1.224 1.101-2.692 2.08-4.284 2.815-1.591 0.734-3.427 1.101-5.508 1.101-0.979 0-1.836-0.122-2.815-0.367s-1.714-0.612-2.448-0.979c-0.735-0.49-1.347-1.102-1.836-1.836-0.49-0.734-0.735-1.591-0.735-2.448 0-1.713 0.49-3.059 1.592-4.161 1.101-1.101 2.325-1.958 3.794-2.57s3.06-1.101 4.529-1.346c1.591-0.245 2.815-0.49 3.795-0.734 0.856-0.123 1.713-0.245 2.692-0.367 0.98-0.123 1.714-0.245 2.326-0.49 0.857-0.367 1.469-0.857 1.714-1.591s0.367-1.591 0.367-2.325c0-1.591-0.612-2.815-1.836-3.549-1.224-0.735-2.693-1.102-4.529-1.102s-3.305 0.367-4.529 0.979c-1.224 0.734-2.448 1.591-3.55 2.57h-0.734l0.857-2.815c1.591-0.734 3.182-1.468 4.896-1.835zm-5.264 21.906c0.98 0.735 2.081 0.98 3.428 0.98 1.713 0 3.305-0.368 4.774-1.224 1.346-0.857 2.57-1.836 3.549-2.938 0.245-1.223 0.49-2.447 0.857-3.671 0.245-1.224 0.612-2.448 1.102-3.672-0.98 0.123-1.959 0.368-2.816 0.49-0.979 0.122-1.836 0.245-2.815 0.489-1.101 0.245-2.081 0.49-3.305 0.735-1.101 0.245-2.081 0.734-3.06 1.224-0.857 0.489-1.714 1.101-2.203 1.835-0.612 0.735-0.857 1.591-0.857 2.693-0.245 1.346 0.245 2.325 1.346 3.059z"/>
    <path d="m232.08 283.85c0.367-0.49 0.979-0.98 1.714-1.469 0.734-0.49 1.469-0.979 2.325-1.346 0.857-0.367 1.836-0.735 2.938-1.102 1.102-0.245 2.203-0.489 3.427-0.489 1.102 0 2.204 0.122 3.305 0.367 1.102 0.245 1.959 0.612 2.816 1.224 0.856 0.489 1.468 1.224 1.958 1.958s0.734 1.713 0.734 2.815v0.979c0 0.245-0.122 0.612-0.244 1.101-0.123 0.49-0.245 0.979-0.49 1.714-0.245 0.734-0.49 1.591-0.734 2.815-0.123 0.611-0.368 1.468-0.735 2.692-0.245 1.101-0.612 2.325-0.857 3.549-0.244 1.224-0.612 2.448-0.856 3.549-0.245 1.102-0.368 1.836-0.49 2.326h-1.102-1.346-1.469-1.346c0.122-0.245 0.367-0.857 0.734-1.714 0.245-0.856 0.612-1.836 0.979-2.937s0.735-2.325 1.102-3.672c0.367-1.346 0.734-2.57 0.979-3.793 0.245-1.224 0.49-2.326 0.735-3.305 0.244-0.979 0.244-1.836 0.244-2.448 0-0.856-0.122-1.468-0.489-2.08s-0.857-1.102-1.469-1.469-1.224-0.734-1.959-0.856c-0.734-0.245-1.468-0.245-2.325-0.245-0.49 0-1.224 0.122-1.959 0.245-0.857 0.122-1.713 0.367-2.57 0.856-0.857 0.367-1.714 0.979-2.571 1.714-0.857 0.734-1.469 1.713-1.958 2.937-0.245 0.612-0.49 1.346-0.857 2.448-0.245 0.979-0.612 2.08-0.857 3.304-0.367 1.224-0.612 2.325-0.857 3.549-0.244 1.224-0.612 2.325-0.734 3.427-0.122 1.101-0.49 1.958-0.612 2.815-0.122 0.734-0.245 1.224-0.367 1.468h-1.102-1.224-1.346-1.224c0.244-0.734 0.612-1.713 1.101-3.059 0.367-1.346 0.857-2.815 1.224-4.406s0.857-3.304 1.347-5.018c0.489-1.713 0.857-3.427 1.224-4.895 0.367-1.591 0.734-2.938 0.979-4.284 0.245-1.224 0.49-2.203 0.612-2.937 0.612 0.122 1.346 0.245 2.326 0.245h1.224c0.367 0 0.856-0.123 1.224-0.123l-1.224 3.917z"/>
    <path d="m273.33 305.02c-1.959 0-3.795-0.245-5.509-0.612-1.713-0.367-3.182-0.979-4.406-1.958-1.224-0.857-2.203-2.081-2.938-3.427-0.734-1.346-1.101-2.937-1.101-4.896 0-1.591 0.367-3.304 0.979-5.14 0.734-1.713 1.713-3.426 3.305-4.895 1.469-1.469 3.427-2.693 5.753-3.672 2.325-0.979 5.141-1.468 8.568-1.468 2.326 0 4.162 0.245 5.753 0.612s2.815 0.734 3.794 0.979c-0.244 0.367-0.367 0.734-0.489 0.979-0.123 0.245-0.245 0.612-0.367 0.857-0.123 0.244-0.245 0.611-0.368 0.856-0.122 0.367-0.244 0.735-0.367 1.102h-0.367c-0.857-1.224-1.958-2.081-3.427-2.693s-3.06-0.856-4.652-0.856c-1.958 0-3.794 0.367-5.385 1.101-1.592 0.734-3.061 1.713-4.162 2.937-1.102 1.224-2.081 2.693-2.693 4.161-0.612 1.591-0.979 3.182-0.979 4.896 0 1.835 0.367 3.426 0.979 4.528 0.734 1.224 1.591 2.081 2.57 2.692 0.98 0.612 2.081 1.102 3.305 1.347 1.102 0.244 2.204 0.367 3.06 0.367 1.102 0 2.081-0.123 3.061-0.245 0.979-0.122 1.836-0.367 2.57-0.612s1.469-0.489 1.958-0.734c0.613-0.245 0.98-0.367 1.347-0.612l0.367 0.122-0.857 2.203c-2.815 1.591-5.875 2.081-9.302 2.081z"/>
    <path d="m309.44 304.53c-1.714 0.368-3.55 0.49-5.386 0.49-1.346 0-2.693-0.122-4.162-0.49-1.468-0.244-2.815-0.856-4.039-1.713s-2.203-1.958-3.06-3.304c-0.857-1.347-1.224-3.182-1.224-5.263 0-2.08 0.367-4.039 1.224-5.874 0.734-1.836 1.836-3.427 3.305-4.773 1.469-1.347 3.182-2.448 5.141-3.182 1.958-0.735 4.162-1.224 6.61-1.224 1.469 0 2.937 0.122 4.284 0.489 1.346 0.245 2.57 0.735 3.549 1.469 1.102 0.734 1.837 1.591 2.449 2.692 0.612 1.102 0.856 2.448 0.856 4.039 0 0.979-0.122 1.836-0.244 2.448-0.123 0.734-0.368 1.224-0.49 1.713-0.857 0-1.714 0-2.448-0.122-0.735 0-1.469 0-2.081-0.123h-2.203-2.571-6.61-3.06-2.692c-0.123 0.368-0.123 0.735-0.245 1.224-0.123 0.49-0.123 1.102-0.123 1.836 0 1.713 0.368 3.06 0.98 4.161 0.612 1.102 1.346 1.836 2.325 2.448 0.857 0.612 1.836 0.979 2.938 1.224 1.102 0.244 2.081 0.367 2.938 0.367 1.224 0 2.325-0.123 3.304-0.367 0.98-0.245 1.837-0.49 2.693-0.735 0.735-0.244 1.469-0.612 1.959-0.856 0.612-0.368 0.979-0.612 1.469-0.857h0.244l-0.856 2.325c-1.469 1.102-3.06 1.714-4.774 1.958zm-4.407-23.253c-0.979 0.245-2.08 0.735-3.06 1.469-0.979 0.734-1.958 1.591-2.693 2.815-0.856 1.224-1.468 2.692-1.958 4.528 1.346 0.122 2.693 0.122 4.284 0.122h4.284 1.959 3.305c1.224 0 2.203-0.122 3.06-0.244 0.122-0.368 0.122-0.735 0.244-1.102 0.123-0.489 0.123-0.979 0.123-1.713 0-1.102-0.245-2.081-0.612-2.938-0.367-0.856-0.857-1.468-1.591-1.958-0.612-0.489-1.347-0.856-2.204-1.101-0.856-0.245-1.591-0.367-2.448-0.367-0.734 0.122-1.713 0.244-2.693 0.489z"/>
    <path d="m209.68 345.77c-4.407 1.713-32.437-2.815-39.537-4.284-8.69-1.836-9.67-2.692-2.693-4.161 8.324-1.713 33.662-5.14 45.535-3.06 10.526 1.836 4.039 8.69-3.305 11.505z"/>
  </g>
</svg>
